<svg xmlns="http://www.w3.org/2000/svg" viewBox="0 0 950 1024">
  <path class="box" d="M640 230l375 207v406l-375 207-375-207V437l375-207m0-102a87 87 0 0 0-42 11L207 355a80 80 0 0 0-42 69v432c0 29 16 55 42 69l391 216a87 87 0 0 0 84 0l391-216c26-14 42-40 42-69V424c0-29-16-55-42-69L682 139a87 87 0 0 0-42-11z" transform="translate(-165 -128)"/>
  <path class="bottom" d="M200 549v113l275 151 275-151V549L475 699 200 549z"/>
  <path class="middle" d="M475 515L200 364v114l275 151 275-151V364L475 515z"/>
  <path class="top" d="M475 211L262 328l213 116 213-116-213-117z"/>
</svg>
