<svg xmlns="http://www.w3.org/2000/svg" viewBox="0 0 950 1024">
  <title>logo-animatable</title>
  <path id="box" d="M640,229.8l375,207.009V843.189L640,1050.2,265,843.189V436.811L640,229.8M640,128a86.913,86.913,0,0,0-41.994,10.759L206.994,354.607C181.008,368.952,165,395.462,165,424.152v431.7c0,28.69,16.008,55.2,41.994,69.545l391.012,215.848a87.334,87.334,0,0,0,83.988,0l391.012-215.848c25.986-14.345,41.994-40.855,41.994-69.545v-431.7c0-28.69-16.008-55.2-41.994-69.545L681.994,138.759A86.913,86.913,0,0,0,640,128Z" transform="translate(-165 -128)"/>
  <polygon id="bottom" points="200 548.912 200 662.368 475 812.735 750 662.368 750 548.912 475 698.735 200 548.912"/>
  <polygon id="middle" points="475 514.735 200 364.368 200 478.368 475 628.735 750 478.368 750 364.368 475 514.735"/>
  <polygon id="top" points="475 211.265 262.423 327.5 475 443.735 687.577 327.5 475 211.265"/>
</svg>
